:FULLY-SPECIFIED
:FORCE-ALL-JOINTS-BE-3DOF
:DEGREES
2344
root 1.75196 14.5147 -18.7564 922.77 -57.1429 164.916
lfemur -10.8731 -6.37176 5.14022
ltibia 25.4108 0 0
lfoot -3.54767 21.4098 0
ltoes -35.0629 0 0
rfemur -66.8618 -10.7427 9.37391
rtibia 76.8597 0 0
rfoot -13.8679 -8.48583 0
rtoes 0.786994 0 0
lowerback 18.502 3.18872 -5.67904
upperback -0.318569 2.98032 -1.0203
thorax -10.9486 1.60716 1.22527
lowerneck -4.12514 -3.40726 -5.54591
upperneck 3.03192 -4.46533 1.65653
head 2.05889 -2.29061 1.22665
lclavicle 1.13377e-14 8.19153e-15 0
lhumerus -36.623 -21.7999 86.9015
lradius 104.592 0 0
lwrist 63.2211 0 0
lhand -22.757 403.617 0
lfingers 7.12502 0 0
lthumb 3.67751 -599.918 0
rclavicle 1.13377e-14 8.19153e-15 0
rhumerus 46.6053 8.5817 -46.2507
rradius 43.1529 0 0
rwrist 10.0403 0 0
rhand -9.94461 -402.102 0
rfingers 7.12502 0 0
rthumb 16.0327 288.611 0
2345
root 1.82048 14.5389 -18.8042 923.95 -60.2683 164.487
lfemur -13.4868 -7.11473 6.95147
ltibia 25.1417 0 0
lfoot -1.82241 19.9809 0
ltoes -33.9443 0 0
rfemur -66.2524 -9.61588 9.27649
rtibia 76.7334 0 0
rfoot -14.3152 -10.6525 0
rtoes 0.395135 0 0
lowerback 19.3578 3.23125 -4.89166
upperback -0.118031 3.11079 -0.954695
thorax -11.1897 1.63079 0.797921
lowerneck -4.58032 -2.61437 -4.94824
upperneck 2.90005 -3.34557 0.874101
head 1.97103 -1.73375 0.94384
lclavicle 1.06544e-14 5.60453e-15 0
lhumerus -33.4959 -22.019 85.1396
lradius 104.802 0 0
lwrist 62.8252 0 0
lhand -22.7612 401.985 0
lfingers 7.12502 0 0
lthumb 3.67354 -615.859 0
rclavicle 1.06544e-14 5.60453e-15 0
rhumerus 46.3745 10.1807 -45.3502
rradius 45.5406 0 0
rwrist 7.99568 0 0
rhand -9.04059 -402.07 0
rfingers 7.12502 0 0
rthumb 16.9041 288.699 0
2346
root 1.88899 14.563 -18.8519 925.209 -63.6067 164.03
lfemur -16.2753 -7.90613 8.88951
ltibia 24.8515 0 0
lfoot 0.0231937 18.4533 0
ltoes -32.7491 0 0
rfemur -65.6003 -8.4093 9.17411
rtibia 76.601 0 0
rfoot -14.7948 -12.9686 0
rtoes -0.0226934 0 0
lowerback 20.2736 3.27771 -4.04962
upperback 0.0971682 3.25166 -0.883857
thorax -11.4475 1.65671 0.341424
lowerneck -5.0671 -1.76623 -4.309
upperneck 2.7592 -2.14776 0.0369441
head 1.87699 -1.13808 0.641308
lclavicle 9.9238e-15 2.87531e-15 0
lhumerus -30.153 -22.2544 83.2578
lradius 105.027 0 0
lwrist 62.4084 0 0
lhand -22.7777 400.246 0
lfingers 7.12502 0 0
lthumb 3.65772 -633.088 0
rclavicle 9.9238e-15 2.87531e-15 0
rhumerus 46.1275 11.8919 -44.3846
rradius 48.094 0 0
rwrist 5.80769 0 0
rhand -8.0739 -402.036 0
rfingers 7.12502 0 0
rthumb 17.8358 288.792 0
2347
root 1.95751 14.5872 -18.8996 926.548 -67.1653 163.544
lfemur -19.2445 -8.74758 10.9588
ltibia 24.5392 0 0
lfoot 1.99335 16.8237 0
ltoes -31.4747 0 0
rfemur -64.9038 -7.12011 9.06662
rtibia 76.4623 0 0
rfoot -15.3078 -15.4393 0
rtoes -0.467362 0 0
lowerback 21.2516 3.32828 -3.15101
upperback 0.327563 3.40334 -0.807588
thorax -11.7224 1.68504 -0.145228
lowerneck -5.58657 -0.860911 -3.62673
upperneck 2.60906 -0.869136 -0.856863
head 1.77656 -0.502227 0.318361
lclavicle 9.14409e-15 0 0
lhumerus -26.5869 -22.5067 81.2518
lradius 105.267 0 0
lwrist 61.9699 0 0
lhand -22.8072 398.396 0
lfingers 7.12502 0 0
lthumb 3.6293 -651.655 0
rclavicle 9.14409e-15 0 0
rhumerus 45.8637 13.7193 -43.3516
rradius 50.819 0 0
rwrist 3.47126 0 0
rhand -7.04236 -401.999 0
rfingers 7.12502 0 0
rthumb 18.8301 288.892 0
2348
root 1.91219 14.5886 -18.9766 928.061 -66.3363 161.904
lfemur -19.8472 -8.61593 11.0289
ltibia 25.065 0 0
lfoot 2.1261 16.6971 0
ltoes -31.1252 0 0
rfemur -64.5226 -6.95802 9.23329
rtibia 76.4378 0 0
rfoot -15.4614 -15.8874 0
rtoes -0.678013 0 0
lowerback 21.3201 3.34445 -3.00584
upperback 0.341636 3.44717 -0.781511
thorax -11.7409 1.69995 -0.210697
lowerneck -5.6417 -0.790244 -3.56782
upperneck 2.62839 -0.76774 -0.917176
head 1.77926 -0.451145 0.296649
lclavicle 9.5669e-15 -6.50878e-16 0
lhumerus -26.0651 -22.2758 81.0898
lradius 105.313 0 0
lwrist 61.329 0 0
lhand -22.9742 398.311 0
lfingers 7.12502 0 0
lthumb 3.46807 -655.062 0
rclavicle 9.5669e-15 -6.50878e-16 0
rhumerus 45.2449 14.2699 -43.6537
rradius 51.7372 0 0
rwrist 2.53423 0 0
rhand -6.92037 -401.847 0
rfingers 7.12502 0 0
rthumb 18.9477 289.052 0
2349
root 1.86687 14.5901 -19.0536 929.398 -65.6007 160.454
lfemur -20.379 -8.49896 11.0897
ltibia 25.5305 0 0
lfoot 2.24249 16.5861 0
ltoes -30.8166 0 0
rfemur -64.1856 -6.81528 9.38082
rtibia 76.4163 0 0
rfoot -15.597 -16.2825 0
rtoes -0.864229 0 0
lowerback 21.3801 3.35874 -2.87787
upperback 0.353955 3.48589 -0.758481
thorax -11.7571 1.71314 -0.268365
lowerneck -5.69021 -0.72822 -3.51606
upperneck 2.64558 -0.678734 -0.970039
head 1.7817 -0.4063 0.277617
lclavicle 9.9384e-15 -1.22433e-15 0
lhumerus -25.6053 -22.0712 80.9475
lradius 105.354 0 0
lwrist 60.7618 0 0
lhand -23.1216 398.235 0
lfingers 7.12502 0 0
lthumb 3.32579 -658.06 0
rclavicle 9.9384e-15 -1.22433e-15 0
rhumerus 44.6974 14.7561 -43.9216
rradius 52.5483 0 0
rwrist 1.7063 0 0
rhand -6.81299 -401.712 0
rfingers 7.12502 0 0
rthumb 19.0512 289.194 0
2350
root 1.82155 14.5915 -19.1305 930.576 -64.9484 159.176
lfemur -20.8441 -8.39495 11.1409
ltibia 25.941 0 0
lfoot 2.34274 16.4901 0
ltoes -30.5461 0 0
rfemur -63.8895 -6.69098 9.5109
rtibia 76.3974 0 0
rfoot -15.716 -16.6278 0
rtoes -1.02786 0 0
lowerback 21.4318 3.37127 -2.76618
upperback 0.364527 3.51983 -0.738286
thorax -11.7711 1.72472 -0.318608
lowerneck -5.73234 -0.674653 -3.47127
upperneck 2.66089 -0.601839 -1.01554
head 1.78397 -0.367546 0.261234
lclavicle 1.02601e-14 -1.72422e-15 0
lhumerus -25.2044 -21.8906 80.8244
lradius 105.39 0 0
lwrist 60.2621 0 0
lhand -23.2505 398.17 0
lfingers 7.12502 0 0
lthumb 3.2013 -660.666 0
rclavicle 1.02601e-14 -1.72422e-15 0
rhumerus 44.2154 15.1824 -44.1589
rradius 53.2597 0 0
rwrist 0.979607 0 0
rhand -6.7196 -401.593 0
rfingers 7.12502 0 0
rthumb 19.1412 289.318 0
